:version 1.10
:name ASF
:units
  mass 1
  length 1
  angle deg
:documentation
  ASF file generated by Kaydara
:root
  axis xyz
  order  tx ty tz rx ry rz
  position 0 0 0
  orientation 0 0 0
:bonedata
  begin
    id 1
    name RightUpLegDummy
    direction -0.65628 -0.754516 0.00165102
    length 4.76918
    axis 0 0 0 xyz
  end
  begin
    id 2
    name RightUpLeg
    direction -0.145584 -0.923362 0.355256
    length 17.9961
    axis -24.7611 -13.1006 1.78531 xyz
    dof rx ry rz
  end
  begin
    id 3
    name RightLeg
    direction 0.263379 0.172355 -0.949171
    length 13.3386
    axis 89.6202 -21.1929 12.3855 xyz
    dof rx ry rz
  end
  begin
    id 4
    name RightFoot
    direction 0.224283 -0.968777 -0.105675
    length 5.86697
    axis 56.995 -39.6905 17.3365 xyz
    dof rx ry rz
  end
  begin
    id 5
    name RightToes
    direction -0.0806345 -0.9037 0.420506
    length 4.75197
    axis 146.825 -39.7828 17.6019 xyz
    dof rx ry rz
  end
  begin
    id 6
    name SpineDummy
    direction -3.39852e-014 1 9.33296e-014
    length 8.13779
    axis 0 0 0 xyz
  end
  begin
    id 7
    name Spine
    direction -0.156609 0.733703 0.661176
    length 7.14978
    axis 41.2365 5.68757 17.0844 xyz
    dof rx ry rz
  end
  begin
    id 8
    name Spine1
    direction 0 0 0
    length 0
    axis 42.8809 47.8308 -3.36039 xyz
    dof rx ry rz
  end
  begin
    id 9
    name HEadDummy
    direction 0.546431 0.701947 0.456819
    length 3.55512
    axis 42.8809 47.8308 -3.36039 xyz
  end
  begin
    id 10
    name HEad
    direction 0.23444 0.828559 0.508457
    length 7.35827
    axis 51.1864 49.2662 27.4903 xyz
    dof rx ry rz
  end
  begin
    id 11
    name LeftShoulder1Dummy
    direction 0.431183 0.475873 -0.766568
    length 2.49352
    axis 42.8809 47.8308 -3.36039 xyz
  end
  begin
    id 12
    name LeftShoulder1
    direction 0.268187 -0.383402 -0.883786
    length 4.48604
    axis -119.517 0.106469 35.1736 xyz
    dof rx ry rz
  end
  begin
    id 13
    name LeftArm
    direction 0.380567 -0.703221 -0.600541
    length 10.1142
    axis -5.41825 36.2925 7.8293 xyz
    dof rx ry rz
  end
  begin
    id 14
    name LeftForeArm
    direction 0.541071 -0.732356 -0.413396
    length 9.39839
    axis 4.65387 33.7604 7.81644 xyz
    dof rx ry rz
  end
  begin
    id 15
    name LeftHand
    direction 0.847511 -0.389379 -0.360707
    length 3.66142
    axis 7.65593 21.1436 -24.6758 xyz
    dof rx ry rz
  end
  begin
    id 16
    name RightShoulderDummy
    direction -0.692546 0.541855 0.476208
    length 2.49352
    axis 42.8809 47.8308 -3.36039 xyz
  end
  begin
    id 17
    name RightShoulder
    direction -0.870808 -0.316653 0.376065
    length 4.48602
    axis 141.571 51.133 -100.254 xyz
    dof rx ry rz
  end
  begin
    id 18
    name RightArm
    direction 0.366897 -0.87275 0.322015
    length 10.1142
    axis 92.3258 71.2036 138.917 xyz
    dof rx ry rz
  end
  begin
    id 19
    name RightForeArm
    direction 0.702487 -0.694568 0.155197
    length 9.39835
    axis 153.863 41.5092 -176.604 xyz
    dof rx ry rz
  end
  begin
    id 20
    name RightHand
    direction 0.79502 -0.601276 0.0800636
    length 3.66142
    axis 154.247 4.59222 142.9 xyz
    dof rx ry rz
  end
  begin
    id 21
    name LeftUpLegDummy
    direction 0.65628 -0.754516 0.00165102
    length 4.76919
    axis 0 0 0 xyz
  end
  begin
    id 22
    name LeftUpLeg
    direction -0.1277 -0.689368 0.713067
    length 17.9961
    axis -48.3385 -17.8675 0.791927 xyz
    dof rx ry rz
  end
  begin
    id 23
    name LeftLeg
    direction 0.109849 -0.991246 -0.0732378
    length 13.3386
    axis -2.05791 -7.30784 1.72042 xyz
    dof rx ry rz
  end
  begin
    id 24
    name LeftFoot
    direction 0.0448355 -0.272614 0.961078
    length 5.86697
    axis -18.7733 -7.89606 10.2113 xyz
    dof rx ry rz
  end
  begin
    id 25
    name LeftToes
    direction -0.18506 0.293668 0.937823
    length 4.75197
    axis 71.2267 -7.89606 10.2113 xyz
    dof rx ry rz
  end
:hierarchy
  begin
    root RightUpLegDummy SpineDummy LeftUpLegDummy
    RightUpLegDummy RightUpLeg
    RightUpLeg RightLeg
    RightLeg RightFoot
    RightFoot RightToes
    SpineDummy Spine
    Spine Spine1
    Spine1 HEadDummy LeftShoulder1Dummy RightShoulderDummy
    HEadDummy HEad
    LeftShoulder1Dummy LeftShoulder1
    LeftShoulder1 LeftArm
    LeftArm LeftForeArm
    LeftForeArm LeftHand
    RightShoulderDummy RightShoulder
    RightShoulder RightArm
    RightArm RightForeArm
    RightForeArm RightHand
    LeftUpLegDummy LeftUpLeg
    LeftUpLeg LeftLeg
    LeftLeg LeftFoot
    LeftFoot LeftToes
  end

:SAMPLES-PER-SECOND 30
:FULLY-SPECIFIED
:DEGREES
342
root  -8.83041 13.3978 -4.58641 55.6693 -31.6636 -128.655
RightUpLeg  -49.0078 -4.97235 -25.4269
RightLeg  -54.2888 -24.8824 9.34816
RightFoot  26.5751 6.7443 -19.4854
RightToes  -1.27222e-014 -6.36111e-015 6.36111e-015
Spine  -9.23195 -12.2305 7.28837
Spine1  4.71448 -16.2831 44.6343
HEad  31.3772 -14.2356 -4.49799
LeftShoulder1  6.36111e-015 -1.33558e-015 6.49777e-015
LeftArm  31.9667 33.4629 -12.0952
LeftForeArm  7.14828 -15.1317 -2.95253
LeftHand  20.9614 24.7364 30.5353
RightShoulder  -4.77083e-015 -6.36111e-015 -3.18055e-015
RightArm  52.895 -11.2283 -22.0295
RightForeArm  1.75796 2.17544 2.62716
RightHand  3.59969 -3.9893 -17.1264
LeftUpLeg  36.3695 25.9553 61.5042
LeftLeg  -23.3079 -22.0472 2.35122
LeftFoot  -6.45119 6.85693 -28.4542
LeftToes  1.27222e-014 1.09105e-011 6.96064e-012
343
root  -10.9161 12.6676 -4.72253 43.2924 -40.5433 -129.586
RightUpLeg  -44.0399 -3.51773 -34.8374
RightLeg  -68.4454 -19.9771 9.68088
RightFoot  27.0566 7.75232 -20.9113
RightToes  -1.27222e-014 -6.36111e-015 6.36111e-015
Spine  -8.99322 -11.9299 8.10001
Spine1  7.70389 -16.7317 48.574
HEad  34.2783 -18.6888 -7.80858
LeftShoulder1  6.36111e-015 -1.33558e-015 6.49777e-015
LeftArm  35.1443 34.1396 -15.4077
LeftForeArm  11.1958 -17.3537 -6.43539
LeftHand  19.2243 22.9134 29.487
RightShoulder  -4.77083e-015 -6.36111e-015 -3.18055e-015
RightArm  52.3166 -19.1489 -26.287
RightForeArm  7.67525 5.8639 11.059
RightHand  4.84256 -6.35746 -19.4729
LeftUpLeg  31.86 22.0559 68.3717
LeftLeg  -28.6483 -12.3531 -2.37517
LeftFoot  -5.88353 6.10866 -24.9006
LeftToes  1.27222e-014 1.09105e-011 6.96064e-012
344
root  -13.1763 12.5305 -4.55952 30.9316 -49.376 -127.993
RightUpLeg  -34.7776 2.24343 -44.8927
RightLeg  -84.4858 -16.1872 12.6106
RightFoot  23.6518 10.303 -24.4172
RightToes  -1.27222e-014 -6.36111e-015 6.36111e-015
Spine  -10.3174 -12.0489 6.03323
Spine1  9.98684 -17.2368 55.5305
HEad  37.2457 -22.449 -10.7017
LeftShoulder1  6.36111e-015 -1.33558e-015 6.49777e-015
LeftArm  38.8321 35.6284 -17.761
LeftForeArm  16.0714 -19.5463 -11.0931
LeftHand  18.4449 22.8088 27.7096
RightShoulder  -4.77083e-015 -6.36111e-015 -3.18055e-015
RightArm  56.5729 -29.2186 -36.4476
RightForeArm  13.929 7.2997 18.0143
RightHand  5.54383 -7.94472 -20.1628
LeftUpLeg  21.9623 21.4001 72.2022
LeftLeg  -30.0297 -1.85436 -5.22079
LeftFoot  -7.50148 5.01536 -21.8111
LeftToes  1.27222e-014 1.09105e-011 6.96064e-012
345
root  -15.1236 12.7767 -4.27995 19.1665 -59.2111 -126.837
RightUpLeg  -23.7536 11.6972 -50.4714
RightLeg  -96.8873 -12.7466 18.4859
RightFoot  21.7657 11.4113 -26.1069
RightToes  -1.27222e-014 -6.36111e-015 6.36111e-015
Spine  -8.67092 -13.047 1.88539
Spine1  11.3837 -17.4801 61.0645
HEad  39.6615 -23.8895 -14.3133
LeftShoulder1  6.36111e-015 -1.33558e-015 6.49777e-015
LeftArm  45.2777 39.0218 -15.9444
LeftForeArm  21.5197 -25.451 -15.7885
LeftHand  16.663 22.8547 22.982
RightShoulder  -4.77083e-015 -6.36111e-015 -3.18055e-015
RightArm  69.9613 -37.9431 -49.2905
RightForeArm  14.9689 5.86082 18.9449
RightHand  6.34726 -9.47873 -21.2862
LeftUpLeg  11.1916 16.3987 73.5073
LeftLeg  -32.3404 11.1084 -11.4571
LeftFoot  -8.59098 3.9365 -17.9147
LeftToes  1.27222e-014 1.09105e-011 6.96064e-012
346
root  -16.8965 13.1387 -3.7367 10.6985 -70.8256 -127.002
RightUpLeg  -12.8428 16.6566 -48.2162
RightLeg  -102.3 -10.8364 22.3768
RightFoot  22.5343 11.6522 -26.4493
RightToes  -1.27222e-014 -6.36111e-015 6.36111e-015
Spine  -5.26073 -13.9855 -1.75037
Spine1  12.5693 -17.3048 62.122
HEad  41.3652 -23.194 -17.6407
LeftShoulder1  6.36111e-015 -1.33558e-015 6.49777e-015
LeftArm  54.2089 41.7894 -16.1058
LeftForeArm  20.321 -30.3546 -15.6589
LeftHand  13.4339 20.241 18.292
RightShoulder  -4.77083e-015 -6.36111e-015 -3.18055e-015
RightArm  88.9735 -42.4943 -62.8261
RightForeArm  12.9763 5.88972 15.7766
RightHand  8.35882 -10.7436 -27.4767
LeftUpLeg  -1.31651 16.8169 73.9466
LeftLeg  -30.924 15.935 -12.3506
LeftFoot  -13.0142 2.60322 -14.4126
LeftToes  1.27222e-014 1.09105e-011 6.96064e-012
347
root  -18.2936 13.558 -3.00392 -12.25 -85.1984 -108.086
RightUpLeg  -5.74277 13.868 -43.3762
RightLeg  -100.25 -11.6349 23.4238
RightFoot  21.9006 11.0203 -25.5055
RightToes  -1.27222e-014 -6.36111e-015 6.36111e-015
Spine  -3.47709 -13.9927 -3.93072
Spine1  14.5309 -15.8921 57.0803
HEad  42.0412 -23.7625 -17.5235
LeftShoulder1  6.36111e-015 -1.33558e-015 6.49777e-015
LeftArm  60.0064 42.7859 -24.4429
LeftForeArm  11.8408 -28.3156 -10.4351
LeftHand  12.2595 18.9434 16.9371
RightShoulder  -4.77083e-015 -6.36111e-015 -3.18055e-015
RightArm  105.578 -43.2285 -75.0792
RightForeArm  12.7332 9.12649 11.52
RightHand  10.8425 -10.1683 -37.9234
LeftUpLeg  -11.4659 21.18 69.953
LeftLeg  -28.9989 12.2784 -10.8238
LeftFoot  -15.9142 1.64476 -10.4919
LeftToes  1.27222e-014 1.09105e-011 6.96064e-012
348
root  -19.2748 14.0696 -2.23032 -147.672 -74.8429 27.6363
RightUpLeg  -4.55147 7.63782 -41.3982
RightLeg  -92.7107 -15.2775 21.5077
RightFoot  18.9828 8.85789 -22.0779
RightToes  -1.27222e-014 -6.36111e-015 6.36111e-015
Spine  -3.44474 -13.5348 -7.27673
Spine1  17.1211 -12.9611 45.5982
HEad  41.1843 -28.458 -13.5542
LeftShoulder1  6.36111e-015 -1.33558e-015 6.49777e-015
LeftArm  61.4797 40.6508 -30.454
LeftForeArm  9.35716 -25.316 -10.7262
LeftHand  12.495 21.7573 12.9022
RightShoulder  -4.77083e-015 -6.36111e-015 -3.18055e-015
RightArm  114.034 -41.603 -84.1131
RightForeArm  14.5452 12.3471 9.20654
RightHand  12.4407 -8.46016 -47.3165
LeftUpLeg  -15.3667 24.3572 63.7957
LeftLeg  -31.1826 7.60722 -9.92619
LeftFoot  -13.6471 1.45942 -8.20146
LeftToes  1.27222e-014 1.09105e-011 6.96064e-012
